# xmcd CD database file
#
# Track frame offsets:
#	150
#	21963
#	38181
#	57300
#	73521
#	93375
#	109278
#	125895
#	143079
#	158535
#	174630
#	187923
#	205059
#	224547
#	239940
#	256539
#	272610
#	287616
#
# Disc length: 4050 seconds
#
# Revision: 2
# Processed by: cddbd v1.5.1PL0 Copyright (c) Steve Scherf et al.
# Submitted via: CDex 1.51
#
DISCID=0e0fd012
DTITLE=Various Artist - chart hits 01- 08
DYEAR=2001
DGENRE=Top 40
TTITLE0=joe and n'sync - believe in you bpm 60
TTITLE1=faith hill - there you'll be bpm 65
TTITLE2=train - drops of jupiter bpm 80
TTITLE3=crazy town - revolving door bpm 90
TTITLE4=usher - u remind me bpm 94
TTITLE5=blue - all rise bpm 98
TTITLE6=bardot - asap bpm 106
TTITLE7=s club 7 - don't stop movin' bpm 117
TTITLE8=steps - here and now bpm 117
TTITLE9=five - let's dance bpm 118
TTITLE10=baha men - best years of our lives bpm 120
TTITLE11=aneiki - pleased to meet you bpm 124
TTITLE12=d12 feat. eminem - purple pills bpm 124
TTITLE13=roger sanchez - another chance bpm 130
TTITLE14=soda club - show me (you love me) bpm 131
TTITLE15=madonna - amazing bpm 134
TTITLE16=sarina paris - look at us bpm 138
TTITLE17=offspring - million miles away bpm 196
EXTD=YEAR: 2001
EXTT0=
EXTT1=
EXTT2=
EXTT3=
EXTT4=
EXTT5=
EXTT6=
EXTT7=
EXTT8=
EXTT9=
EXTT10=
EXTT11=
EXTT12=
EXTT13=
EXTT14=
EXTT15=
EXTT16=
EXTT17=
PLAYORDER=
